<svg width="160" height="40" viewBox="0 0 160 40" fill="none" xmlns="http://www.w3.org/2000/svg">
<path d="M23.5431 32.833V30.7693H27.1652C27.5726 30.7693 27.7447 30.5713 27.7447 30.1269V22.2506C27.7177 21.6705 27.9165 21.1018 28.3016 20.6577C28.4889 20.4543 28.7189 20.2922 28.9762 20.1825C29.2469 20.0797 29.5372 20.0347 29.8274 20.0505H29.8817V19.9625H29.8364C29.5423 19.981 29.2478 19.9328 28.9762 19.8217C28.7062 19.716 28.4634 19.5538 28.2654 19.3465C27.8832 18.8993 27.6863 18.3299 27.713 17.7492V9.86848C27.713 9.42846 27.5319 9.22605 27.1335 9.22605H23.9642V7.16237H27.8171C28.11 7.15806 28.4009 7.21041 28.6728 7.31638C28.9547 7.42267 29.2118 7.58276 29.4289 7.7872C29.6259 7.99574 29.7797 8.23926 29.8817 8.50442C29.9964 8.77644 30.0519 9.06858 30.0447 9.36246V17.7228C30.0447 18.5104 30.4522 18.88 31.3441 18.88H33.7845V21.1241H31.3441C30.4386 21.1241 30.0447 21.4937 30.0447 22.2814V30.6417C30.0506 30.9326 29.9952 31.2217 29.8817 31.4909C29.7797 31.7561 29.6259 31.9996 29.4289 32.2082C29.2149 32.4153 28.959 32.5771 28.6774 32.6834C28.4054 32.7894 28.1146 32.8417 27.8216 32.8374L23.5431 32.833Z" fill="#7000FF"/>
<path d="M10.2595 32.8332V30.7696H6.63742C6.22994 30.7696 6.0579 30.5716 6.0579 30.1271V22.2508C6.08264 21.671 5.88408 21.1031 5.501 20.658C5.30402 20.4508 5.06206 20.2888 4.79267 20.1838C4.52328 20.0787 4.23322 20.0333 3.94352 20.0507H3.91182V19.9627H3.9571C4.24818 19.9798 4.53942 19.9317 4.80828 19.8219C5.0769 19.7161 5.3181 19.5538 5.51459 19.3467C5.89991 18.9011 6.0987 18.3309 6.07148 17.7494V9.86872C6.07148 9.42871 6.24805 9.2263 6.65101 9.2263H9.82031V7.16262H5.96282C5.66883 7.15643 5.37663 7.20866 5.10414 7.3161C4.83166 7.42354 4.58462 7.58393 4.37817 7.78744C4.16659 7.99365 4.00078 8.23983 3.89098 8.51077C3.78118 8.78172 3.72972 9.07167 3.73978 9.3627V17.723C3.73978 18.5107 3.3323 18.8803 2.44036 18.8803H0V21.1244H2.44036C3.34588 21.1244 3.73978 21.494 3.73978 22.2816V30.642C3.73158 30.9308 3.78396 31.2182 3.8937 31.4868C4.00345 31.7553 4.16829 31.9994 4.37817 32.204C4.58353 32.4101 4.83003 32.5733 5.10258 32.6836C5.37607 32.7896 5.66843 32.8419 5.96282 32.8376L10.2595 32.8332Z" fill="#7000FF"/>
<path fill-rule="evenodd" clip-rule="evenodd" d="M15.1309 16.9574C15.1332 16.9178 15.1332 16.8782 15.1309 16.8386C15.1158 16.6698 15.0633 16.5062 14.977 16.359C14.8898 16.204 14.7693 16.0689 14.6239 15.963C14.251 15.7085 13.8024 15.5802 13.3471 15.5978C12.6256 15.5966 11.9262 15.8393 11.3685 16.2842C11.1104 16.4881 10.8972 16.7405 10.7416 17.0262C10.586 17.312 10.4913 17.6253 10.463 17.9474H11.4908C11.538 17.6663 11.6741 17.4064 11.8801 17.2038C12.0573 17.0348 12.2777 16.9148 12.5185 16.8562C12.5163 16.8943 12.5163 16.9325 12.5185 16.9706C12.508 17.1436 12.5341 17.3169 12.595 17.4797C12.6559 17.6426 12.7504 17.7916 12.8727 17.9177C12.995 18.0438 13.1426 18.1443 13.3063 18.2129C13.47 18.2816 13.6464 18.317 13.8247 18.317C14.003 18.317 14.1795 18.2816 14.3432 18.2129C14.5069 18.1443 14.6545 18.0438 14.7768 17.9177C14.8991 17.7916 14.9936 17.6426 15.0545 17.4797C15.1154 17.3169 15.1414 17.1436 15.1309 16.9706V16.9574Z" fill="#333333"/>
<path d="M11.5092 22.3255C12.246 22.8083 13.0738 23.1448 13.945 23.3156C15.0689 23.5663 16.2193 23.6874 17.3724 23.6764C18.4232 23.6798 19.4705 23.5601 20.4919 23.32C21.3939 23.126 22.2598 22.798 23.059 22.3475V22.9019C22.2761 23.513 21.3866 23.9824 20.433 24.288C19.4485 24.6184 18.414 24.7865 17.3724 24.7852C16.2398 24.7946 15.1131 24.6267 14.0355 24.288C13.1041 24.0123 12.2473 23.5389 11.5273 22.9019L11.5092 22.3255Z" fill="#333333"/>
<path d="M20.8946 17.7667C21.3347 17.7667 21.6915 17.42 21.6915 16.9923C21.6915 16.5646 21.3347 16.2179 20.8946 16.2179C20.4545 16.2179 20.0978 16.5646 20.0978 16.9923C20.0978 17.42 20.4545 17.7667 20.8946 17.7667Z" fill="#333333"/>
<path d="M21.7957 18.858C21.3257 19.0846 20.7861 19.1344 20.2805 18.9979C19.775 18.8615 19.3391 18.5483 19.0567 18.1185C18.7743 17.6888 18.6652 17.1728 18.7504 16.6696C18.8356 16.1664 19.109 15.7116 19.5182 15.3924C19.9274 15.0733 20.4435 14.9123 20.9674 14.9404C21.4913 14.9685 21.986 15.1837 22.3566 15.5447C22.7272 15.9057 22.9474 16.387 22.9751 16.8963C23.0028 17.4055 22.8359 17.9067 22.5065 18.3036L23.1313 18.9152C23.6296 18.3566 23.8921 17.6355 23.8664 16.8967C23.8407 16.1578 23.5286 15.4557 22.9926 14.931C22.4566 14.4064 21.7364 14.098 20.9764 14.0677C20.2163 14.0374 19.4725 14.2875 18.8942 14.7677C18.3158 15.2479 17.9455 15.9228 17.8576 16.6571C17.7697 17.3915 17.9706 18.131 18.4201 18.7274C18.8696 19.3238 19.5344 19.7331 20.2814 19.8732C21.0283 20.0133 21.8021 19.8739 22.4477 19.4828L21.7957 18.858Z" fill="#333333"/>
<path d="M60.5158 11.6553V28.0724H57.926V11.6553H60.5158Z" fill="#333333"/>
<path d="M74.2205 21.7846C74.2452 20.8145 74.0808 19.8485 73.7361 18.9377C73.45 18.2096 72.9963 17.5549 72.4095 17.0237C71.8588 16.5474 71.213 16.1864 70.5125 15.9632C69.8091 15.7343 69.072 15.6184 68.3302 15.62C67.1988 15.5854 66.0797 15.8565 65.0975 16.4032C64.1702 16.9407 63.4196 17.7237 62.9333 18.6605C62.4051 19.696 62.1426 20.8404 62.1681 21.9959C62.1395 23.153 62.4022 24.2995 62.9333 25.3356C63.4258 26.2591 64.184 27.0235 65.1156 27.5357C66.1544 28.076 67.3199 28.3444 68.4977 28.3145C69.381 28.33 70.26 28.1899 71.092 27.9009C71.8061 27.6572 72.4546 27.2601 72.989 26.7392C73.4895 26.2496 73.8526 25.6437 74.044 24.9792L71.59 24.57C71.4459 24.9406 71.2149 25.2735 70.9154 25.5424C70.6128 25.8075 70.2566 26.0083 69.8695 26.132C69.4301 26.2658 68.9717 26.3311 68.5113 26.3256C67.8224 26.3458 67.1398 26.1943 66.5282 25.8856C65.9617 25.5839 65.5012 25.1241 65.2061 24.5656C64.9041 23.9642 64.7491 23.3031 64.7534 22.6339H74.2024L74.2205 21.7846ZM64.776 20.8386C64.8015 20.3187 64.9453 19.8108 65.1971 19.3514C65.5044 18.8003 65.9639 18.3436 66.5238 18.0326C67.0837 17.7217 67.7219 17.5688 68.3664 17.5913C68.9805 17.5825 69.5857 17.7345 70.1185 18.0313C70.6094 18.3081 71.0133 18.7097 71.2867 19.1929C71.5704 19.7081 71.7138 20.2852 71.7032 20.8694L64.776 20.8386Z" fill="#333333"/>
<path d="M112.284 18.7656L109.934 19.1484C109.835 18.8596 109.681 18.5911 109.482 18.3564C109.252 18.0844 108.96 17.8675 108.63 17.7228C108.2 17.5499 107.737 17.4688 107.272 17.4852C106.63 17.4574 105.993 17.6102 105.438 17.9252C105.217 18.0354 105.032 18.2024 104.902 18.408C104.772 18.6135 104.702 18.8499 104.7 19.0912C104.695 19.2833 104.737 19.4738 104.823 19.6468C104.909 19.8198 105.036 19.9703 105.194 20.0857C105.675 20.3963 106.218 20.6061 106.788 20.7017L108.902 21.1417C109.901 21.3051 110.839 21.7226 111.619 22.3518C111.917 22.6224 112.153 22.9522 112.309 23.3188C112.465 23.6855 112.538 24.0804 112.524 24.477C112.534 25.19 112.291 25.8846 111.836 26.4439C111.347 27.0663 110.695 27.5496 109.948 27.8432C109.045 28.1843 108.082 28.3502 107.114 28.3316C105.837 28.3869 104.571 28.0812 103.469 27.4516C103.013 27.1744 102.622 26.8063 102.324 26.3717C102.025 25.9371 101.824 25.4458 101.735 24.9303L104.239 24.5782C104.364 25.1369 104.708 25.6261 105.198 25.9423C105.773 26.2651 106.433 26.418 107.096 26.3823C107.81 26.4171 108.519 26.2457 109.133 25.8895C109.356 25.7699 109.544 25.5958 109.677 25.3844C109.811 25.1731 109.885 24.9316 109.894 24.6838C109.897 24.4993 109.858 24.3163 109.78 24.1481C109.702 23.9799 109.586 23.8307 109.441 23.7114C109.025 23.4058 108.538 23.2034 108.024 23.1218L105.76 22.6818C104.74 22.5244 103.786 22.0914 103.007 21.4321C102.711 21.1498 102.477 20.811 102.321 20.437C102.165 20.063 102.091 19.6618 102.102 19.2584C102.093 18.5612 102.331 17.8822 102.776 17.3356C103.254 16.7632 103.879 16.3231 104.587 16.0595C105.435 15.7462 106.338 15.5967 107.245 15.6195C108.444 15.5591 109.632 15.867 110.641 16.4995C111.447 17.042 112.03 17.845 112.284 18.7656Z" fill="#333333"/>
<path d="M119.777 28.3183C118.613 28.3505 117.463 28.0688 116.453 27.5043C115.535 26.9694 114.795 26.1888 114.321 25.2558C113.807 24.2333 113.551 23.1066 113.574 21.9689C113.551 20.8208 113.814 19.6843 114.339 18.6556C114.82 17.722 115.564 16.9406 116.485 16.4027C117.476 15.8455 118.605 15.5653 119.75 15.593C120.682 15.5749 121.609 15.7505 122.466 16.1079C123.221 16.4261 123.881 16.9239 124.386 17.5555C124.879 18.1869 125.18 18.9399 125.255 19.7292H122.738C122.586 19.0967 122.208 18.537 121.672 18.1495C121.136 17.762 120.475 17.5718 119.808 17.6127C119.13 17.6044 118.466 17.7962 117.902 18.1627C117.346 18.5342 116.91 19.0515 116.644 19.6544C116.325 20.3751 116.171 21.1541 116.191 21.9381C116.174 22.7346 116.329 23.5258 116.644 24.2614C116.903 24.8715 117.337 25.3967 117.893 25.775C118.458 26.1417 119.125 26.3293 119.804 26.3119C120.27 26.3211 120.732 26.2356 121.162 26.0611C121.555 25.9015 121.903 25.6525 122.176 25.335C122.458 25.0043 122.657 24.614 122.756 24.1954H125.273C125.192 24.966 124.903 25.7022 124.436 26.3295C123.949 26.9672 123.304 27.4744 122.561 27.8035C121.685 28.1762 120.733 28.3521 119.777 28.3183Z" fill="#333333"/>
<path d="M132.408 28.3189C131.265 28.3448 130.136 28.0712 129.14 27.5269C128.216 27.001 127.465 26.2302 126.975 25.3048C126.443 24.2705 126.179 23.1256 126.206 21.9695C126.179 20.8092 126.443 19.66 126.975 18.6209C127.465 17.697 128.216 16.9278 129.14 16.4032C130.145 15.8832 131.267 15.6112 132.406 15.6112C133.545 15.6112 134.667 15.8832 135.673 16.4032C136.595 16.9217 137.346 17.6849 137.837 18.6033C138.369 19.6424 138.633 20.7916 138.607 21.9519C138.633 23.108 138.369 24.2529 137.837 25.2872C137.349 26.2136 136.598 26.9847 135.673 27.5093C134.679 28.0592 133.552 28.3389 132.408 28.3189ZM132.408 26.308C133.128 26.3355 133.836 26.1262 134.419 25.714C134.961 25.3091 135.371 24.7605 135.6 24.1343C136.12 22.7322 136.12 21.198 135.6 19.7958C135.37 19.1666 134.96 18.6142 134.419 18.2029C133.839 17.7854 133.13 17.5727 132.408 17.6001C131.686 17.5752 130.976 17.7876 130.394 18.2029C129.851 18.6136 129.439 19.1661 129.207 19.7958C128.944 20.4885 128.814 21.2222 128.823 21.9607C128.813 22.702 128.943 23.4389 129.207 24.1343C129.438 24.7608 129.85 25.3093 130.394 25.714C130.98 26.1256 131.691 26.3347 132.413 26.308H132.408Z" fill="#333333"/>
<path d="M86.4273 17.6836C86.0755 17.0179 85.5225 16.4728 84.8426 16.1215C84.1047 15.7608 83.287 15.581 82.4611 15.5979C81.593 15.565 80.733 15.7709 79.98 16.1919C79.6873 16.372 79.4221 16.5912 79.1922 16.8432L78.4135 18.1632L78.1101 18.0532L78.3727 16.456V15.7563H75.8871V28.0768H78.4769V20.7593C78.4581 20.1773 78.597 19.6007 78.8798 19.0873C79.1319 18.639 79.5146 18.2731 79.98 18.0356C80.4733 17.7872 81.0228 17.6632 81.5782 17.6748C81.9583 17.6546 82.3385 17.7114 82.6947 17.8417C83.0509 17.972 83.3753 18.1729 83.6473 18.4316C83.9083 18.7155 84.1091 19.0466 84.2381 19.406C84.367 19.7655 84.4217 20.1461 84.3989 20.5261V28.0724H86.9887V20.2401C87.0199 19.3561 86.8271 18.4782 86.4273 17.6836Z" fill="#333333"/>
<path d="M55.1961 17.723C54.8938 17.1811 54.4504 16.7259 53.9102 16.4029C53.3923 16.0998 52.8238 15.8869 52.2305 15.7737C51.6732 15.6632 51.106 15.6057 50.5372 15.6021C49.7603 15.5987 48.987 15.7054 48.2417 15.9189C47.5347 16.1199 46.8791 16.4632 46.3175 16.9265C45.7421 17.4179 45.3043 18.0432 45.0453 18.7438L47.4811 19.2586C47.709 18.7795 48.0676 18.3701 48.5179 18.075C49.1269 17.6884 49.8473 17.5018 50.5734 17.5426C51.2565 17.496 51.9324 17.7019 52.466 18.119C52.6846 18.331 52.8542 18.5859 52.9635 18.8666C53.0728 19.1473 53.1193 19.4475 53.0998 19.747V19.8043C53.1099 19.9285 53.0838 20.0529 53.0245 20.1634C52.9653 20.2739 52.8753 20.3659 52.7648 20.4291C52.4254 20.5873 52.0582 20.6814 51.6827 20.7063L49.7404 20.9175C49.118 20.9869 48.4999 21.0882 47.8886 21.2211C47.313 21.3421 46.7581 21.5421 46.2405 21.8151C45.7626 22.0654 45.36 22.4324 45.0724 22.88C44.7571 23.3987 44.6001 23.9939 44.6197 24.596C44.5957 25.3212 44.8028 26.0358 45.2128 26.6421C45.6193 27.2029 46.1792 27.6419 46.8291 27.9094C47.5438 28.208 48.315 28.3579 49.0929 28.3494C49.7358 28.3635 50.3759 28.2621 50.9809 28.0502C51.455 27.8827 51.8926 27.6305 52.2713 27.3066L52.3211 27.2581L53.0817 25.9601L53.4258 26.0833L53.1677 27.6542V28.0942H55.6896V19.8923C55.7214 19.1398 55.5513 18.3923 55.1961 17.723ZM53.1089 23.628C53.1113 24.1121 52.9715 24.5869 52.7059 24.9965C52.4222 25.4382 52.0178 25.7946 51.5378 26.0261C50.9676 26.3018 50.3362 26.4363 49.6996 26.4177C49.0645 26.4478 48.4344 26.2948 47.8886 25.9777C47.6614 25.8375 47.4762 25.6418 47.3514 25.4101C47.2267 25.1784 47.1668 24.9189 47.1777 24.6576C47.1593 24.2814 47.2906 23.9126 47.5445 23.628C47.8143 23.3425 48.1538 23.1277 48.5315 23.0032C48.9725 22.8593 49.4277 22.7605 49.8898 22.7084L50.6866 22.6072C51.0035 22.5676 51.3295 22.5236 51.6646 22.4708C51.9704 22.4295 52.273 22.3677 52.5701 22.286C52.7623 22.2475 52.9433 22.1679 53.0998 22.0527L53.1089 23.628Z" fill="#333333"/>
<path d="M148.699 15.7558V22.9633C148.736 23.5321 148.596 24.0987 148.297 24.5892C147.999 25.0798 147.555 25.4715 147.024 25.7134C146.573 25.9314 146.078 26.0473 145.575 26.0522C145.213 26.0657 144.852 26.0063 144.514 25.8775C144.177 25.7488 143.87 25.5536 143.614 25.3041C143.358 25.0364 143.159 24.7212 143.03 24.3773C142.9 24.0333 142.844 23.6677 142.863 23.3021V15.7558H140.273V23.5881C140.243 24.4715 140.434 25.3488 140.83 26.1446C141.173 26.8031 141.711 27.347 142.374 27.7066C143.071 28.0648 143.85 28.245 144.638 28.2303C145.522 28.2616 146.396 28.0348 147.146 27.579C147.425 27.4015 147.683 27.1949 147.916 26.963L148.685 25.643L148.989 25.753L148.753 27.2006V28.0807H151.298V15.7602L148.699 15.7558Z" fill="#333333"/>
<path d="M92.4798 14.4497L92.2036 16.1393L92.507 16.2493L93.3763 14.7665L92.4798 14.4497Z" fill="#333333"/>
<path d="M43.4016 25.995L43.0349 26.0566C42.8557 26.0889 42.6737 26.1037 42.4916 26.1006C42.2248 26.1032 41.9596 26.06 41.7083 25.973C41.4618 25.8872 41.2537 25.7208 41.1197 25.5022C40.9499 25.1789 40.8732 24.8171 40.8978 24.4549V17.6831H43.6144V15.7558H41.4412L40.9884 16.5654L40.6851 16.4554L40.9114 15.0826V12.8077H38.3081V15.7558H36.3567V17.6831H38.3081V24.9521C38.2823 25.61 38.4726 26.2588 38.8514 26.8046C39.2163 27.2944 39.7173 27.6729 40.2957 27.8959C40.9006 28.1336 41.5495 28.2475 42.2018 28.2303C42.5497 28.2322 42.8969 28.2013 43.2386 28.1379C43.4564 28.0975 43.6711 28.0431 43.8815 27.9751L43.4016 25.995Z" fill="#333333"/>
<path d="M95.2289 25.995L94.8666 26.0566C94.686 26.0888 94.5025 26.1035 94.3188 26.1006C94.0521 26.1023 93.7871 26.0591 93.5355 25.973C93.2896 25.8883 93.0826 25.7215 92.9515 25.5022C92.7799 25.1794 92.7016 24.8175 92.7251 24.4549V17.6831H95.4417V15.7558H93.2684L92.8157 16.5654L92.5123 16.4554L92.7251 15.0826V12.8077H90.1353V15.7558H88.1885V17.6831H90.1353V24.9521C90.1112 25.6105 90.3031 26.2592 90.6832 26.8046C91.0433 27.2934 91.5397 27.672 92.1139 27.8959C92.7174 28.1332 93.3647 28.247 94.0155 28.2303C94.3648 28.2321 94.7136 28.2011 95.0568 28.1379C95.2743 28.0963 95.489 28.042 95.6997 27.9751L95.2289 25.995Z" fill="#333333"/>
<path d="M159.547 25.995L159.18 26.0566C159.001 26.0889 158.819 26.1037 158.637 26.1006C158.37 26.1032 158.105 26.06 157.854 25.973C157.607 25.8872 157.399 25.7208 157.265 25.5022C157.095 25.1789 157.019 24.8171 157.043 24.4549V17.6831H159.76V15.7558H157.587L157.107 16.5654L156.803 16.4554L157.03 15.0826V12.8077H154.44V15.7558H152.489V17.6831H154.44V24.9521C154.414 25.61 154.605 26.2588 154.983 26.8046C155.345 27.2924 155.841 27.6708 156.414 27.8959C157.019 28.1336 157.668 28.2475 158.32 28.2303C158.668 28.2322 159.015 28.2013 159.357 28.1379C159.575 28.0975 159.79 28.0431 160 27.9751L159.547 25.995Z" fill="#333333"/>
</svg>
