<svg width="82" height="63" viewBox="0 0 82 63" fill="none" xmlns="http://www.w3.org/2000/svg">
<path d="M25.554 30.5967H56.3057V40.0663C56.3306 41.4139 56.0083 42.7477 55.3651 43.9583C54.772 45.0661 53.8508 45.9968 52.7079 46.6429C51.4603 47.3062 50.0359 47.6343 48.5962 47.5898H48.1182C46.6724 47.6237 45.2461 47.2771 44.0065 46.5908C42.8638 45.9362 41.9432 44.9996 41.3493 43.8872C40.7172 42.6922 40.4002 41.3765 40.4241 40.0473V34.2709H25.554V30.5967ZM44.0219 34.2709V39.6733C43.9603 40.7946 44.3543 41.8968 45.1269 42.7651C45.5073 43.152 45.9761 43.4563 46.4996 43.6561C47.0231 43.8559 47.5882 43.9462 48.1542 43.9204H48.5242C49.095 43.9484 49.6654 43.8593 50.1943 43.6595C50.7232 43.4598 51.1973 43.1542 51.5823 42.7651C52.359 41.8986 52.7551 40.7955 52.6925 39.6733V34.2709H44.0219Z" fill="#333333"/>
<path d="M56.8196 62.5291V57.5379H65.4542C66.4277 57.5379 66.8414 57.0603 66.8414 55.9904V36.9473C66.7797 35.5449 67.2535 34.1705 68.1702 33.0928C68.6451 32.5948 69.2254 32.205 69.8704 31.9508C70.5154 31.6966 71.2094 31.5843 71.9034 31.6217H72.0202V31.4163H71.9131C71.217 31.4524 70.5214 31.3371 69.8761 31.0787C69.2307 30.8202 68.6515 30.425 68.1799 29.9214C67.2612 28.8449 66.7871 27.4696 66.8511 26.0669V7.00948C66.8511 5.93959 66.4228 5.46196 65.4639 5.46196H57.8838V0.470726H67.114C67.8165 0.457055 68.5145 0.583816 69.1655 0.843291C69.8165 1.10277 70.4069 1.48953 70.9007 1.98004C71.4041 2.47374 71.7997 3.06296 72.0633 3.71172C72.327 4.36047 72.453 5.05514 72.4339 5.75331V25.9857C72.4339 27.8962 73.4074 28.7846 75.5441 28.7846H81.3849V34.2153H75.5441C73.422 34.2153 72.4339 35.1036 72.4339 37.0094V57.2466C72.453 57.9447 72.327 58.6394 72.0633 59.2882C71.7997 59.9369 71.4041 60.5261 70.9007 61.0198C70.4069 61.5103 69.8165 61.8971 69.1655 62.1566C68.5145 62.4161 67.8165 62.5428 67.114 62.5291H56.8196Z" fill="#7000FF"/>
<path d="M25.0653 62.5291V57.5379H16.4307C15.4572 57.5379 15.0435 57.0603 15.0435 55.9904V36.9473C15.1052 35.5449 14.6313 34.1705 13.7147 33.0928C13.2398 32.5948 12.6595 32.205 12.0145 31.9508C11.3695 31.6966 10.6755 31.5843 9.98151 31.6217H9.8647V31.4163H9.97178C10.6678 31.4524 11.3634 31.3371 12.0088 31.0787C12.6542 30.8202 13.2334 30.425 13.705 29.9214C14.6237 28.8449 15.0978 27.4696 15.0338 26.0669V7.00948C15.0338 5.93959 15.4621 5.46196 16.421 5.46196H24.0011V0.470726H14.7709C14.0684 0.457055 13.3704 0.583816 12.7194 0.843291C12.0684 1.10277 11.478 1.48953 10.9842 1.98004C10.4807 2.47374 10.0852 3.06296 9.82154 3.71172C9.55794 4.36047 9.43184 5.05514 9.45097 5.75331V25.9857C9.45097 27.8962 8.47752 28.7846 6.34077 28.7846H0.5V34.2153H6.34077C8.46292 34.2153 9.45097 35.1036 9.45097 37.0094V57.2466C9.43184 57.9447 9.55794 58.6394 9.82154 59.2882C10.0852 59.9369 10.4807 60.5261 10.9842 61.0198C11.478 61.5103 12.0684 61.8971 12.7194 62.1566C13.3704 62.4161 14.0684 62.5428 14.7709 62.5291H25.0653Z" fill="#7000FF"/>
<path d="M39.3622 21.9357C39.3647 21.8037 39.3602 21.6714 39.3486 21.5392C39.3005 20.9875 39.1309 20.4507 38.85 19.9614C38.5691 19.4722 38.1828 19.0408 37.7149 18.6937C36.5227 17.8599 35.0525 17.4346 33.5569 17.4911C31.179 17.4932 28.8837 18.2946 27.1015 19.7448C25.3872 21.1504 24.3331 23.1147 24.1616 25.223H27.5127C27.6589 24.3084 28.1034 23.4563 28.7873 22.7798C29.3523 22.2247 30.0732 21.8287 30.8661 21.6336C30.8548 21.7576 30.8491 21.8832 30.8491 22.0101C30.8491 24.3172 32.7549 26.1874 35.106 26.1874C37.457 26.1874 39.3628 24.3172 39.3628 22.0101C39.3628 21.9853 39.3626 21.9605 39.3622 21.9357Z" fill="#333333"/>
<path d="M56.307 22.0101C56.307 24.3172 54.4011 26.1874 52.0501 26.1874C49.6991 26.1874 47.7932 24.3172 47.7932 22.0101C47.7932 19.7031 49.6991 17.8328 52.0501 17.8328C54.4011 17.8328 56.307 19.7031 56.307 22.0101Z" fill="#333333"/>
</svg>
